<svg id="visual" viewBox="0 0 960 840" width="960" height="840" xmlns="http://www.w3.org/2000/svg" xmlns:xlink="http://www.w3.org/1999/xlink" version="1.1"><path d="M0 617L22.8 609.8C45.7 602.7 91.3 588.3 137 575.7C182.7 563 228.3 552 274 569.3C319.7 586.7 365.3 632.3 411.2 648.8C457 665.3 503 652.7 548.8 659.2C594.7 665.7 640.3 691.3 686 691.5C731.7 691.7 777.3 666.3 823 655.5C868.7 644.7 914.3 648.3 937.2 650.2L960 652L960 841L937.2 841C914.3 841 868.7 841 823 841C777.3 841 731.7 841 686 841C640.3 841 594.7 841 548.8 841C503 841 457 841 411.2 841C365.3 841 319.7 841 274 841C228.3 841 182.7 841 137 841C91.3 841 45.7 841 22.8 841L0 841Z" fill="#3aaf00" stroke-linecap="round" stroke-linejoin="miter"></path></svg>